<mxfile host="app.diagrams.net" modified="2024-05-06T10:47:56.650Z" agent="Mozilla/5.0 (Windows NT 10.0; Win64; x64) AppleWebKit/537.36 (KHTML, like Gecko) Chrome/124.0.0.0 Safari/537.36" etag="-CvRQBO8ODOhXU6hH2VU" version="24.2.1" type="google">
  <diagram name="Page-1" id="TkY_IGThyVxqRX25zmqi">
    <mxGraphModel dx="1567" dy="844" grid="1" gridSize="10" guides="1" tooltips="1" connect="1" arrows="1" fold="1" page="1" pageScale="1" pageWidth="827" pageHeight="1169" math="0" shadow="0">
      <root>
        <mxCell id="0" />
        <mxCell id="1" parent="0" />
        <mxCell id="Yp0kobE-ybzVmd7KWFU4-1" value="" style="rhombus;whiteSpace=wrap;html=1;" parent="1" vertex="1">
          <mxGeometry x="600" y="360" width="146" height="90" as="geometry" />
        </mxCell>
        <mxCell id="Yp0kobE-ybzVmd7KWFU4-2" value="" style="rhombus;whiteSpace=wrap;html=1;" parent="1" vertex="1">
          <mxGeometry x="330" y="525" width="156" height="100" as="geometry" />
        </mxCell>
        <mxCell id="Yp0kobE-ybzVmd7KWFU4-3" value="" style="rounded=0;whiteSpace=wrap;html=1;" parent="1" vertex="1">
          <mxGeometry x="880" y="540" width="140" height="70" as="geometry" />
        </mxCell>
        <mxCell id="Yp0kobE-ybzVmd7KWFU4-4" value="" style="rounded=0;whiteSpace=wrap;html=1;" parent="1" vertex="1">
          <mxGeometry x="603" y="540" width="140" height="70" as="geometry" />
        </mxCell>
        <mxCell id="ROQ_5uXjaNLtY6Ul0ghv-3" style="edgeStyle=orthogonalEdgeStyle;rounded=0;orthogonalLoop=1;jettySize=auto;html=1;entryX=1;entryY=1;entryDx=0;entryDy=0;" parent="1" source="Yp0kobE-ybzVmd7KWFU4-5" target="Yp0kobE-ybzVmd7KWFU4-1" edge="1">
          <mxGeometry relative="1" as="geometry">
            <mxPoint x="780" y="770" as="targetPoint" />
            <Array as="points">
              <mxPoint x="150" y="740" />
              <mxPoint x="780" y="740" />
              <mxPoint x="780" y="427" />
            </Array>
          </mxGeometry>
        </mxCell>
        <mxCell id="Yp0kobE-ybzVmd7KWFU4-5" value="" style="rounded=0;whiteSpace=wrap;html=1;" parent="1" vertex="1">
          <mxGeometry x="72.5" y="520" width="155" height="110" as="geometry" />
        </mxCell>
        <mxCell id="Yp0kobE-ybzVmd7KWFU4-6" value="" style="rounded=0;whiteSpace=wrap;html=1;" parent="1" vertex="1">
          <mxGeometry x="80" y="380" width="140" height="70" as="geometry" />
        </mxCell>
        <mxCell id="Yp0kobE-ybzVmd7KWFU4-7" value="" style="endArrow=classic;html=1;rounded=0;" parent="1" source="Yp0kobE-ybzVmd7KWFU4-9" edge="1">
          <mxGeometry width="50" height="50" relative="1" as="geometry">
            <mxPoint x="390" y="430" as="sourcePoint" />
            <mxPoint x="440" y="380" as="targetPoint" />
          </mxGeometry>
        </mxCell>
        <mxCell id="Yp0kobE-ybzVmd7KWFU4-8" value="" style="endArrow=classic;html=1;rounded=0;" parent="1" target="Yp0kobE-ybzVmd7KWFU4-9" edge="1">
          <mxGeometry width="50" height="50" relative="1" as="geometry">
            <mxPoint x="390" y="430" as="sourcePoint" />
            <mxPoint x="440" y="380" as="targetPoint" />
          </mxGeometry>
        </mxCell>
        <mxCell id="Yp0kobE-ybzVmd7KWFU4-9" value="" style="rhombus;whiteSpace=wrap;html=1;" parent="1" vertex="1">
          <mxGeometry x="335" y="360" width="146" height="90" as="geometry" />
        </mxCell>
        <mxCell id="Yp0kobE-ybzVmd7KWFU4-10" value="" style="endArrow=none;html=1;rounded=0;exitX=1;exitY=0.5;exitDx=0;exitDy=0;" parent="1" source="Yp0kobE-ybzVmd7KWFU4-1" edge="1">
          <mxGeometry width="50" height="50" relative="1" as="geometry">
            <mxPoint x="390" y="420" as="sourcePoint" />
            <mxPoint x="950" y="405" as="targetPoint" />
          </mxGeometry>
        </mxCell>
        <mxCell id="Yp0kobE-ybzVmd7KWFU4-11" value="" style="endArrow=classic;html=1;rounded=0;entryX=0.5;entryY=0;entryDx=0;entryDy=0;" parent="1" target="Yp0kobE-ybzVmd7KWFU4-3" edge="1">
          <mxGeometry width="50" height="50" relative="1" as="geometry">
            <mxPoint x="950" y="400" as="sourcePoint" />
            <mxPoint x="820" y="480" as="targetPoint" />
          </mxGeometry>
        </mxCell>
        <mxCell id="Yp0kobE-ybzVmd7KWFU4-12" value="" style="endArrow=classic;html=1;rounded=0;exitX=0.5;exitY=1;exitDx=0;exitDy=0;entryX=0.5;entryY=0;entryDx=0;entryDy=0;" parent="1" source="Yp0kobE-ybzVmd7KWFU4-1" target="Yp0kobE-ybzVmd7KWFU4-4" edge="1">
          <mxGeometry width="50" height="50" relative="1" as="geometry">
            <mxPoint x="390" y="420" as="sourcePoint" />
            <mxPoint x="440" y="370" as="targetPoint" />
          </mxGeometry>
        </mxCell>
        <mxCell id="Yp0kobE-ybzVmd7KWFU4-13" value="" style="endArrow=classic;html=1;rounded=0;exitX=0.5;exitY=1;exitDx=0;exitDy=0;entryX=0.5;entryY=0;entryDx=0;entryDy=0;" parent="1" source="Yp0kobE-ybzVmd7KWFU4-9" target="Yp0kobE-ybzVmd7KWFU4-2" edge="1">
          <mxGeometry width="50" height="50" relative="1" as="geometry">
            <mxPoint x="290" y="520" as="sourcePoint" />
            <mxPoint x="340" y="470" as="targetPoint" />
          </mxGeometry>
        </mxCell>
        <mxCell id="Yp0kobE-ybzVmd7KWFU4-14" value="" style="endArrow=classic;html=1;rounded=0;exitX=1.009;exitY=0.389;exitDx=0;exitDy=0;entryX=0;entryY=0.5;entryDx=0;entryDy=0;exitPerimeter=0;" parent="1" source="Yp0kobE-ybzVmd7KWFU4-6" target="Yp0kobE-ybzVmd7KWFU4-9" edge="1">
          <mxGeometry width="50" height="50" relative="1" as="geometry">
            <mxPoint x="390" y="490" as="sourcePoint" />
            <mxPoint x="440" y="440" as="targetPoint" />
          </mxGeometry>
        </mxCell>
        <mxCell id="Yp0kobE-ybzVmd7KWFU4-15" value="" style="endArrow=classic;html=1;rounded=0;exitX=0;exitY=0.5;exitDx=0;exitDy=0;entryX=1;entryY=0.5;entryDx=0;entryDy=0;" parent="1" source="Yp0kobE-ybzVmd7KWFU4-2" target="Yp0kobE-ybzVmd7KWFU4-5" edge="1">
          <mxGeometry width="50" height="50" relative="1" as="geometry">
            <mxPoint x="390" y="490" as="sourcePoint" />
            <mxPoint x="440" y="440" as="targetPoint" />
          </mxGeometry>
        </mxCell>
        <mxCell id="Yp0kobE-ybzVmd7KWFU4-16" value="" style="endArrow=classic;html=1;rounded=0;exitX=1;exitY=0.5;exitDx=0;exitDy=0;entryX=0;entryY=0.5;entryDx=0;entryDy=0;" parent="1" source="Yp0kobE-ybzVmd7KWFU4-9" target="Yp0kobE-ybzVmd7KWFU4-1" edge="1">
          <mxGeometry width="50" height="50" relative="1" as="geometry">
            <mxPoint x="390" y="490" as="sourcePoint" />
            <mxPoint x="440" y="440" as="targetPoint" />
          </mxGeometry>
        </mxCell>
        <mxCell id="Yp0kobE-ybzVmd7KWFU4-23" value="&lt;font style=&quot;font-size: 18px;&quot;&gt;Sent to buffer&amp;nbsp;&lt;/font&gt;" style="text;html=1;align=center;verticalAlign=middle;whiteSpace=wrap;rounded=0;" parent="1" vertex="1">
          <mxGeometry x="643" y="560" width="60" height="30" as="geometry" />
        </mxCell>
        <mxCell id="Yp0kobE-ybzVmd7KWFU4-24" value="&lt;font style=&quot;font-size: 22px;&quot;&gt;ACK&lt;/font&gt;" style="text;html=1;align=center;verticalAlign=middle;whiteSpace=wrap;rounded=0;" parent="1" vertex="1">
          <mxGeometry x="920" y="620" width="60" height="30" as="geometry" />
        </mxCell>
        <mxCell id="Yp0kobE-ybzVmd7KWFU4-25" value="&lt;font style=&quot;font-size: 18px;&quot;&gt;Taken&amp;nbsp;&lt;br&gt;&amp;nbsp;&lt;/font&gt;&lt;font style=&quot;font-size: 14px;&quot;&gt;(Good)&lt;/font&gt;" style="text;html=1;align=center;verticalAlign=middle;whiteSpace=wrap;rounded=0;" parent="1" vertex="1">
          <mxGeometry x="920" y="560" width="60" height="30" as="geometry" />
        </mxCell>
        <mxCell id="Yp0kobE-ybzVmd7KWFU4-26" value="&lt;font style=&quot;font-size: 18px;&quot;&gt;FEC error?&lt;/font&gt;" style="text;html=1;align=center;verticalAlign=middle;whiteSpace=wrap;rounded=0;" parent="1" vertex="1">
          <mxGeometry x="643" y="390" width="60" height="30" as="geometry" />
        </mxCell>
        <mxCell id="Yp0kobE-ybzVmd7KWFU4-27" value="&lt;font style=&quot;font-size: 18px;&quot;&gt;Retransmitted&lt;/font&gt;" style="text;html=1;align=center;verticalAlign=middle;whiteSpace=wrap;rounded=0;" parent="1" vertex="1">
          <mxGeometry x="373" y="390" width="60" height="30" as="geometry" />
        </mxCell>
        <mxCell id="Yp0kobE-ybzVmd7KWFU4-28" value="&lt;font style=&quot;font-size: 18px;&quot;&gt;Packet received&lt;/font&gt;" style="text;html=1;align=center;verticalAlign=middle;whiteSpace=wrap;rounded=0;" parent="1" vertex="1">
          <mxGeometry x="110" y="400" width="60" height="30" as="geometry" />
        </mxCell>
        <mxCell id="Yp0kobE-ybzVmd7KWFU4-29" value="&lt;font style=&quot;font-size: 18px;&quot;&gt;SNR &amp;gt; Threshold&lt;/font&gt;" style="text;html=1;align=center;verticalAlign=middle;whiteSpace=wrap;rounded=0;" parent="1" vertex="1">
          <mxGeometry x="373" y="560" width="60" height="30" as="geometry" />
        </mxCell>
        <mxCell id="Yp0kobE-ybzVmd7KWFU4-30" value="&lt;font style=&quot;font-size: 18px;&quot;&gt;Soft combining with buffer&lt;/font&gt;" style="text;html=1;align=center;verticalAlign=middle;whiteSpace=wrap;rounded=0;" parent="1" vertex="1">
          <mxGeometry x="110" y="560" width="60" height="30" as="geometry" />
        </mxCell>
        <mxCell id="Yp0kobE-ybzVmd7KWFU4-31" value="&lt;font style=&quot;font-size: 22px;&quot;&gt;NACK&lt;/font&gt;" style="text;html=1;align=center;verticalAlign=middle;whiteSpace=wrap;rounded=0;" parent="1" vertex="1">
          <mxGeometry x="643" y="620" width="60" height="30" as="geometry" />
        </mxCell>
        <mxCell id="Yp0kobE-ybzVmd7KWFU4-33" value="&lt;font style=&quot;font-size: 22px;&quot;&gt;No&lt;/font&gt;&lt;div style=&quot;font-size: 22px;&quot;&gt;&lt;br&gt;&lt;/div&gt;" style="text;html=1;align=center;verticalAlign=middle;whiteSpace=wrap;rounded=0;" parent="1" vertex="1">
          <mxGeometry x="250" y="550" width="60" height="30" as="geometry" />
        </mxCell>
        <mxCell id="Yp0kobE-ybzVmd7KWFU4-34" value="&lt;font style=&quot;font-size: 22px;&quot;&gt;Yes&lt;/font&gt;" style="text;html=1;align=center;verticalAlign=middle;whiteSpace=wrap;rounded=0;" parent="1" vertex="1">
          <mxGeometry x="167.5" y="670" width="60" height="30" as="geometry" />
        </mxCell>
        <mxCell id="ROQ_5uXjaNLtY6Ul0ghv-7" value="&lt;font style=&quot;font-size: 22px;&quot;&gt;Yes&lt;/font&gt;" style="text;html=1;align=center;verticalAlign=middle;whiteSpace=wrap;rounded=0;" parent="1" vertex="1">
          <mxGeometry x="400" y="480" width="60" height="30" as="geometry" />
        </mxCell>
        <mxCell id="ROQ_5uXjaNLtY6Ul0ghv-10" value="&lt;font style=&quot;font-size: 22px;&quot;&gt;No&lt;/font&gt;&lt;div style=&quot;font-size: 22px;&quot;&gt;&lt;br&gt;&lt;/div&gt;" style="text;html=1;align=center;verticalAlign=middle;whiteSpace=wrap;rounded=0;" parent="1" vertex="1">
          <mxGeometry x="486" y="380" width="60" height="30" as="geometry" />
        </mxCell>
        <mxCell id="ROQ_5uXjaNLtY6Ul0ghv-11" value="&lt;font style=&quot;font-size: 22px;&quot;&gt;Yes&lt;/font&gt;" style="text;html=1;align=center;verticalAlign=middle;whiteSpace=wrap;rounded=0;" parent="1" vertex="1">
          <mxGeometry x="670" y="480" width="60" height="30" as="geometry" />
        </mxCell>
        <mxCell id="ROQ_5uXjaNLtY6Ul0ghv-12" value="&lt;font style=&quot;font-size: 22px;&quot;&gt;No&lt;/font&gt;&lt;div style=&quot;font-size: 22px;&quot;&gt;&lt;br&gt;&lt;/div&gt;" style="text;html=1;align=center;verticalAlign=middle;whiteSpace=wrap;rounded=0;" parent="1" vertex="1">
          <mxGeometry x="746" y="380" width="60" height="30" as="geometry" />
        </mxCell>
      </root>
    </mxGraphModel>
  </diagram>
</mxfile>
